<?xml version="1.0" encoding="utf-8"?>
<!-- Generator: Adobe Illustrator 16.0.0, SVG Export Plug-In . SVG Version: 6.00 Build 0)  -->
<!DOCTYPE svg PUBLIC "-//W3C//DTD SVG 1.0//EN" "http://www.w3.org/TR/2001/REC-SVG-20010904/DTD/svg10.dtd">
<svg version="1.0" id="Layer_1" xmlns="http://www.w3.org/2000/svg" xmlns:xlink="http://www.w3.org/1999/xlink" x="0px" y="0px"
	 width="389.76px" height="391.92px" viewBox="0 0 389.76 391.92" enable-background="new 0 0 389.76 391.92" xml:space="preserve">
<g>
	<g>
		<defs>
			<rect id="SVGID_1_" width="389.76" height="391.92"/>
		</defs>
		<clipPath id="SVGID_2_">
			<use xlink:href="#SVGID_1_"  overflow="visible"/>
		</clipPath>
		<path clip-path="url(#SVGID_2_)" d="M276.164,390.799c1.758,0.082,3.438,0.16,5.199,0.16c18.801,0,34.48-6.797,46.801-20.16
			l0.316-0.32c4.402-5.277,9.363-10.078,14.641-15.117c3.602-3.443,7.281-6.961,10.723-10.641
			c16.398-17.121,16.32-38.803-0.16-55.281l-45.602-45.598c-7.84-8.16-17.199-12.48-27.121-12.48c-9.84,0-19.277,4.238-27.359,12.32
			l-26.961,26.957c-2.398-1.359-4.879-2.559-7.277-3.758c-3.039-1.52-5.84-2.961-8.32-4.48
			c-24.719-15.68-47.121-36.16-68.563-62.482c-10.796-13.596-17.918-24.959-22.957-36.639c7.039-6.399,13.598-13.039,19.918-19.52
			c2.321-2.32,4.641-4.718,7.039-7.121c17.122-17.117,17.122-38.316,0-55.359l-22.636-22.641c-2.641-2.637-5.203-5.277-7.762-7.84
			c-5.039-5.117-10.238-10.476-15.441-15.277c-7.84-7.84-17.118-11.922-26.957-11.922c-9.762,0-19.204,4.082-27.36,11.922
			l-28.402,28.32C7.523,74.24,1.602,86.88,0.324,101.521c-1.441,18.238,1.918,37.598,10.559,60.961
			c13.359,36.079,33.441,69.598,63.199,105.436c36.242,43.201,79.762,77.361,129.52,101.443
			C222.563,378.4,247.922,388.959,276.164,390.799L276.164,390.799z M89.203,255.361c-28.32-34.082-47.281-65.762-59.84-99.68
			c-7.761-20.883-10.64-37.121-9.441-52.562c0.879-10,4.719-18.321,11.922-25.438l28.238-28.242c4.32-4.16,9.039-6.32,13.68-6.32
			c4.562,0,9.039,2.16,13.359,6.402c5.043,4.719,9.922,9.68,15.043,14.879c2.559,2.641,5.199,5.359,7.918,8l22.641,22.641
			c9.281,9.281,9.281,18.398,0,27.679c-2.399,2.399-4.801,4.801-7.121,7.199c-7.04,7.122-13.598,13.84-20.879,20.321l-0.399,0.398
			c-6.479,6.481-5.523,12.723-3.922,17.363c0.078,0.239,0.16,0.399,0.239,0.637c5.839,14.082,14.082,27.442,26.722,43.442
			c22.801,28.082,46.801,49.92,73.36,66.801c3.281,2.078,6.719,3.84,10.078,5.52c3.043,1.518,5.84,2.961,8.32,4.48
			c0.32,0.16,0.563,0.32,0.883,0.48c2.559,1.277,5.039,1.918,7.598,1.918c6.32,0,10.32-4,11.602-5.361l28.398-28.396
			c4.32-4.32,8.961-6.563,13.52-6.563c5.602,0,10.16,3.52,13.121,6.563l45.762,45.758c11.199,11.199,6.078,21.281-0.242,27.922
			c-3.199,3.438-6.559,6.641-10.078,10.078c-5.359,5.121-10.883,10.48-15.922,16.48c-8.641,9.281-18.879,13.602-32.238,13.602
			c-1.281,0-2.641-0.082-3.922-0.16c-24.879-1.602-47.918-11.283-65.277-19.52C164.961,328.881,123.602,296.479,89.203,255.361
			L89.203,255.361z M89.203,255.361"/>
		<path clip-path="url(#SVGID_2_)" d="M214.242,72.162c-5.359-0.883-10.398,2.718-11.281,8c-0.879,5.359,2.723,10.398,8,11.277
			c22,3.762,42,14.16,58,30.082c15.922,15.918,26.32,36,30.082,58c0.801,4.801,4.961,8.16,9.68,8.16c0.559,0,1.121-0.082,1.68-0.16
			c5.359-0.883,8.961-6,8-11.281c-4.398-26-16.719-49.758-35.52-68.559C263.922,88.798,240.242,76.56,214.242,72.162L214.242,72.162
			z M214.242,72.162"/>
		<path clip-path="url(#SVGID_2_)" d="M379.922,184.322c0.559,0,1.121-0.082,1.68-0.16c5.359-0.883,8.961-6,8-11.282
			c-7.277-43.039-27.598-82.16-58.719-113.281C299.684,28.482,260.563,8.162,217.523,0.88c-5.359-0.879-10.402,2.719-11.281,8
			c-0.879,5.36,2.719,10.399,8,11.282c38.961,6.636,74.48,25.039,102.719,53.277c28.242,28.242,46.641,63.762,53.281,102.723
			C371.043,180.959,375.203,184.322,379.922,184.322L379.922,184.322z M379.922,184.322"/>
	</g>
</g>
</svg>
