<?xml version="1.0" encoding="utf-8"?>
<!-- Generator: Adobe Illustrator 16.0.0, SVG Export Plug-In . SVG Version: 6.00 Build 0)  -->
<!DOCTYPE svg PUBLIC "-//W3C//DTD SVG 1.0//EN" "http://www.w3.org/TR/2001/REC-SVG-20010904/DTD/svg10.dtd">
<svg version="1.0" id="Layer_1" xmlns="http://www.w3.org/2000/svg" xmlns:xlink="http://www.w3.org/1999/xlink" x="0px" y="0px"
	 width="378.961px" height="392.881px" viewBox="0 0 378.961 392.881" enable-background="new 0 0 378.961 392.881"
	 xml:space="preserve">
<g>
	<g>
		<defs>
			<rect id="SVGID_1_" width="378.961" height="392.881"/>
		</defs>
		<clipPath id="SVGID_2_">
			<use xlink:href="#SVGID_1_"  overflow="visible"/>
		</clipPath>
		<path clip-path="url(#SVGID_2_)" d="M378.32,306.561c0-5.441-4.398-9.84-9.84-9.84H33.52l58.878-58.879
			c3.84-3.842,3.84-10,0-13.842c-3.839-3.838-10-3.838-13.839,0L2.961,299.6c-3.84,3.84-3.84,10,0,13.84l75.598,75.6
			c1.921,1.918,4.402,2.879,6.961,2.879c2.558,0,5.039-0.961,6.96-2.879c3.84-3.838,3.84-10,0-13.838l-58.878-58.879h335.039
			C373.922,316.322,378.32,312,378.32,306.561L378.32,306.561z M378.32,306.561"/>
		<path clip-path="url(#SVGID_2_)" d="M375.441,78.958L299.84,3.439c-3.84-3.84-10-3.84-13.84,0s-3.84,10,0,13.84l58.879,58.883
			H9.84C4.398,76.162,0,80.56,0,86.001c0,5.438,4.398,9.84,9.84,9.84h335.039L286,154.56c-3.84,3.84-3.84,10,0,13.84
			c1.922,1.922,4.398,2.879,6.961,2.879c2.559,0,5.039-0.957,6.961-2.879l75.598-75.602
			C379.281,89.04,379.281,82.798,375.441,78.958L375.441,78.958z M375.441,78.958"/>
	</g>
</g>
</svg>
