<?xml version="1.0" encoding="utf-8"?>
<!-- Generator: Adobe Illustrator 16.0.0, SVG Export Plug-In . SVG Version: 6.00 Build 0)  -->
<!DOCTYPE svg PUBLIC "-//W3C//DTD SVG 1.0//EN" "http://www.w3.org/TR/2001/REC-SVG-20010904/DTD/svg10.dtd">
<svg version="1.0" id="Layer_1" xmlns="http://www.w3.org/2000/svg" xmlns:xlink="http://www.w3.org/1999/xlink" x="0px" y="0px"
	 width="392.881px" height="369.84px" viewBox="0 0 392.881 369.84" enable-background="new 0 0 392.881 369.84"
	 xml:space="preserve">
<g>
	<g>
		<defs>
			<rect id="SVGID_1_" width="392.881" height="369.84"/>
		</defs>
		<clipPath id="SVGID_2_">
			<use xlink:href="#SVGID_1_"  overflow="visible"/>
		</clipPath>
		<path clip-path="url(#SVGID_2_)" d="M209.223,368.719c1.359,0.082,2.719,0.16,4,0.16c14.797,0,27.199-5.359,36.879-15.918
			l0.32-0.32c3.199-3.84,6.879-7.359,10.801-11.121c2.719-2.559,5.438-5.281,8.078-8.078c13.121-13.68,13.039-31.68-0.16-44.883
			l-34.16-34.16c-6.32-6.637-14-10.078-22.078-10.078c-8,0-15.762,3.441-22.242,10l-18.879,18.879c-1.281-0.719-2.64-1.359-3.922-2
			c-2.16-1.121-4.238-2.16-6-3.277c-18.32-11.602-34.957-26.801-50.797-46.32c-7.523-9.441-12.64-17.523-16.242-25.281
			c4.801-4.48,9.36-9.039,13.762-13.52l5.277-5.281c6.723-6.719,10.243-14.481,10.243-22.481s-3.52-15.758-10.243-22.48
			l-16.957-16.957c-1.922-1.922-3.84-3.922-5.761-5.84c-3.758-3.922-7.758-7.922-11.602-11.524
			c-6.316-6.316-13.918-9.679-21.918-9.679c-7.922,0-15.601,3.281-22.238,9.679L14.102,119.52
			c-8.161,8.242-12.879,18.242-13.84,29.761c-1.52,18.399,3.918,35.52,8.078,46.797c10.082,27.281,25.281,52.641,47.762,79.762
			c27.359,32.641,60.32,58.48,97.918,76.641C168.34,359.281,187.621,367.359,209.223,368.719L209.223,368.719z M71.062,263.199
			c-21.042-25.277-35.121-48.801-44.48-74c-5.68-15.277-7.84-27.122-6.883-38.32c0.563-6.879,3.281-12.641,8.403-17.758
			l20.96-20.961c1.918-1.84,4.958-4.082,8.559-4.082c3.441,0,6.32,2.16,8.32,4.16c3.758,3.524,7.36,7.203,11.2,11.121
			c1.921,2,3.921,4,5.921,6l16.958,16.961c2.082,2.078,4.48,5.2,4.48,8.641c0,3.437-2.48,6.559-4.48,8.641
			c-1.84,1.839-3.598,3.597-5.36,5.437c-5.199,5.281-10.16,10.32-15.519,15.121l-0.399,0.399c-5.84,5.839-4.801,11.679-3.519,15.519
			c0.078,0.242,0.16,0.402,0.238,0.641c4.48,10.801,10.719,21.043,20.398,33.203c17.282,21.277,35.442,37.84,55.524,50.559
			c2.558,1.68,5.199,2.961,7.758,4.238c2.16,1.121,4.242,2.16,6,3.281c0.32,0.16,0.558,0.32,0.879,0.48
			c6.16,3.039,12.242,2,17.203-3.039L204.5,268.16c1.922-1.922,4.961-4.238,8.402-4.238c3.359,0,6.16,2.238,8.078,4.238l34.32,34.32
			c5.68,5.68,5.68,11.359-0.238,17.52c-2.32,2.48-4.883,4.879-7.523,7.441c-4,3.918-8.238,7.918-12.078,12.48
			c-6,6.398-13.039,9.359-22.32,9.359c-0.961,0-1.84,0-2.801-0.082c-18.238-1.199-35.278-8.32-48-14.398
			C127.383,317.84,96.66,293.762,71.062,263.199L71.062,263.199z M71.062,263.199"/>
	</g>
	<path d="M236.34,214.559c10.723,2.641,21.762,4,32.961,4c68,0,123.281-49.039,123.281-109.278C392.582,49.039,337.301,0,269.301,0
		S146.02,48.961,146.02,109.281c0,23.117,8.32,45.68,23.519,64.239c-2.879,5.519-6.879,10-11.84,13.199
		c-4.558,3.043-6.719,8.402-5.519,13.68c1.203,5.281,5.441,9.121,10.8,9.922c10.481,1.441,30.801,2.238,49.762-9.199
		c4.641-2.801,6.16-8.801,3.359-13.441s-8.801-6.16-13.441-3.36c-7.039,4.239-14.558,6.161-21.199,6.879
		c3.68-4.641,6.559-10,8.801-16c1.277-3.437,0.48-7.359-2-10.078c-14.801-16.082-22.641-35.359-22.641-55.922
		c0-49.437,46.48-89.679,103.68-89.679s103.68,40.242,103.68,89.679c0,49.442-46.48,89.68-103.68,89.68
		c-9.602,0-19.121-1.117-28.32-3.359c-5.199-1.281-10.559,1.922-11.84,7.199C227.859,208,231.063,213.281,236.34,214.559
		L236.34,214.559z M236.34,214.559"/>
	<path d="M279.699,109.281c0,5.742-4.656,10.399-10.398,10.399s-10.398-4.657-10.398-10.399c0-5.746,4.656-10.402,10.398-10.402
		S279.699,103.535,279.699,109.281L279.699,109.281z M279.699,109.281"/>
	<path d="M316.742,109.281c0,5.742-4.656,10.399-10.402,10.399c-5.742,0-10.398-4.657-10.398-10.399
		c0-5.746,4.656-10.402,10.398-10.402C312.086,98.879,316.742,103.535,316.742,109.281L316.742,109.281z M316.742,109.281"/>
	<path d="M242.66,109.281c0,5.742-4.656,10.399-10.398,10.399c-5.746,0-10.402-4.657-10.402-10.399
		c0-5.746,4.656-10.402,10.402-10.402C238.004,98.879,242.66,103.535,242.66,109.281L242.66,109.281z M242.66,109.281"/>
</g>
</svg>
