<?xml version="1.0" encoding="utf-8"?>
<!-- Generator: Adobe Illustrator 16.0.0, SVG Export Plug-In . SVG Version: 6.00 Build 0)  -->
<!DOCTYPE svg PUBLIC "-//W3C//DTD SVG 1.0//EN" "http://www.w3.org/TR/2001/REC-SVG-20010904/DTD/svg10.dtd">
<svg version="1.0" id="Layer_1" xmlns="http://www.w3.org/2000/svg" xmlns:xlink="http://www.w3.org/1999/xlink" x="0px" y="0px"
	 width="392.32px" height="392.319px" viewBox="0 0 392.32 392.319" enable-background="new 0 0 392.32 392.319"
	 xml:space="preserve">
<g>
	<path d="M196.16,392.319c108.16,0,196.16-88,196.16-196.159C392.32,88,304.32,0,196.16,0S0,88,0,196.16
		C0,304.319,88,392.319,196.16,392.319L196.16,392.319z M196.16,19.602c97.359,0,176.559,79.199,176.559,176.559
		S293.52,372.719,196.16,372.719S19.602,293.52,19.602,196.16S98.801,19.602,196.16,19.602L196.16,19.602z M196.16,19.602"/>
	<path d="M148,172.961l38.398-38.402v146.723c0,5.438,4.403,9.84,9.84,9.84c5.442,0,9.84-4.402,9.84-9.84V134.641l38.402,38.398
		c1.918,1.922,4.398,2.883,6.961,2.883c2.559,0,5.039-0.961,6.957-2.883c3.84-3.84,3.84-10,0-13.84l-55.117-55.121
		c-3.84-3.84-10-3.84-13.84,0l-55.121,55.121c-3.84,3.84-3.84,10,0,13.84C137.922,176.801,144.16,176.801,148,172.961L148,172.961z
		 M148,172.961"/>
</g>
</svg>
