<?xml version="1.0" encoding="utf-8"?>
<!-- Generator: Adobe Illustrator 16.0.0, SVG Export Plug-In . SVG Version: 6.00 Build 0)  -->
<!DOCTYPE svg PUBLIC "-//W3C//DTD SVG 1.0//EN" "http://www.w3.org/TR/2001/REC-SVG-20010904/DTD/svg10.dtd">
<svg version="1.0" id="Layer_1" xmlns="http://www.w3.org/2000/svg" xmlns:xlink="http://www.w3.org/1999/xlink" x="0px" y="0px"
	 width="391.68px" height="333.281px" viewBox="0 0 391.68 333.281" enable-background="new 0 0 391.68 333.281"
	 xml:space="preserve">
<g>
	<path d="M315.84,180V36.16C315.84,16.238,299.602,0,279.68,0H36.16C16.238,0,0,16.238,0,36.16V180
		c0,19.922,16.238,36.16,36.16,36.16h10.32v43.359c0,8,6.481,14.48,14.559,14.48c4.16,0,8.16-1.84,10.961-5.039l45.68-52.883
		h162.082C299.602,216.16,315.84,199.922,315.84,180L315.84,180z M113.121,196.559c-2.883,0-5.519,1.203-7.441,3.363L66,245.762
		v-39.442c0-5.44-4.398-9.84-9.84-9.84h-20c-9.121,0-16.558-7.44-16.558-16.558V36.16c0-9.121,7.437-16.558,16.558-16.558h243.52
		c9.121,0,16.559,7.437,16.559,16.558V180c0,9.121-7.438,16.559-16.559,16.559H113.121z M113.121,196.559"/>
	<path d="M319.762,328.238c2.797,3.281,6.797,5.043,10.879,5.043c1.68,0,3.438-0.32,5.121-0.962
		c5.758-2.159,9.438-7.44,9.438-13.601v-43.36h10.32c19.922,0,36.16-16.237,36.16-36.159V95.359c0-19.918-16.238-36.16-36.16-36.16
		c-5.441,0-9.84,4.403-9.84,9.762c0,5.437,4.398,9.84,9.84,9.84c9.121,0,16.559,7.437,16.559,16.558v143.84
		c0,9.12-7.438,16.563-16.559,16.563h-20.078c-5.441,0-9.84,4.398-9.84,9.84v39.438l-39.68-45.84
		c-1.844-2.16-4.563-3.359-7.441-3.359h-147.2c-5.441,0-9.84,4.397-9.84,9.84c0,5.441,4.399,9.84,9.84,9.84H274L319.762,328.238z
		 M319.762,328.238"/>
	<path d="M169.602,111.52c0,6.449-5.231,11.679-11.68,11.679c-6.453,0-11.684-5.23-11.684-11.679c0-6.45,5.231-11.68,11.684-11.68
		C164.371,99.84,169.602,105.07,169.602,111.52L169.602,111.52z M169.602,111.52"/>
	<path d="M208.719,111.52c0,6.449-5.227,11.679-11.68,11.679c-6.449,0-11.68-5.23-11.68-11.679c0-6.45,5.231-11.68,11.68-11.68
		C203.492,99.84,208.719,105.07,208.719,111.52L208.719,111.52z M208.719,111.52"/>
	<path d="M130.48,111.52c0,6.449-5.23,11.679-11.679,11.679c-6.453,0-11.68-5.23-11.68-11.679c0-6.45,5.227-11.68,11.68-11.68
		C125.25,99.84,130.48,105.07,130.48,111.52L130.48,111.52z M130.48,111.52"/>
</g>
</svg>
