<?xml version="1.0" encoding="utf-8"?>
<!-- Generator: Adobe Illustrator 16.0.0, SVG Export Plug-In . SVG Version: 6.00 Build 0)  -->
<!DOCTYPE svg PUBLIC "-//W3C//DTD SVG 1.0//EN" "http://www.w3.org/TR/2001/REC-SVG-20010904/DTD/svg10.dtd">
<svg version="1.0" id="Layer_1" xmlns="http://www.w3.org/2000/svg" xmlns:xlink="http://www.w3.org/1999/xlink" x="0px" y="0px"
	 width="391.92px" height="319.92px" viewBox="0 0 391.92 319.92" enable-background="new 0 0 391.92 319.92" xml:space="preserve">
<g>
	<g>
		<defs>
			<rect id="SVGID_1_" width="391.92" height="319.92"/>
		</defs>
		<clipPath id="SVGID_2_">
			<use xlink:href="#SVGID_1_"  overflow="visible"/>
		</clipPath>
		<path clip-path="url(#SVGID_2_)" d="M0,98.159v172.96c0,26.4,21.441,47.84,47.84,47.84h296.32c26.398,0,47.84-21.439,47.84-47.84
			V98.159c0-25.121-20.398-45.519-45.52-45.519h-63.68l-1.52-6.641C275.121,19.359,251.68,0.8,224.32,0.8h-56.718
			c-27.282,0-50.723,18.559-56.961,45.199l-1.52,6.641H45.52C20.398,52.64,0,73.12,0,98.159L0,98.159z M116.961,72.241
			c4.559,0,8.48-3.121,9.519-7.601l3.282-14.238c4.16-17.68,19.679-30,37.84-30h56.718c18.16,0,33.68,12.32,37.84,30l3.281,14.238
			c1.039,4.398,4.957,7.601,9.52,7.601h71.438c14.32,0,25.922,11.598,25.922,25.918v172.96c0,15.604-12.641,28.24-28.242,28.24
			H47.84c-15.602,0-28.238-12.637-28.238-28.24V98.159c0-14.32,11.597-25.918,25.918-25.918H116.961z M116.961,72.241"/>
	</g>
	<path d="M79.441,114.081c0,7.246-5.875,13.117-13.121,13.117s-13.121-5.871-13.121-13.117s5.875-13.121,13.121-13.121
		S79.441,106.835,79.441,114.081L79.441,114.081z M79.441,114.081"/>
	<path d="M196,268.641c45.359,0,82.32-36.961,82.32-82.32c0-45.36-36.961-82.321-82.32-82.321c-45.359,0-82.32,36.879-82.32,82.321
		C113.68,231.762,150.641,268.641,196,268.641L196,268.641z M196,123.601c34.559,0,62.719,28.16,62.719,62.719
		c0,34.557-28.16,62.717-62.719,62.717c-34.559,0-62.719-28.16-62.719-62.717C133.281,151.761,161.441,123.601,196,123.601
		L196,123.601z M196,123.601"/>
</g>
</svg>
