<?xml version="1.0" encoding="utf-8"?>
<!-- Generator: Adobe Illustrator 16.0.0, SVG Export Plug-In . SVG Version: 6.00 Build 0)  -->
<!DOCTYPE svg PUBLIC "-//W3C//DTD SVG 1.0//EN" "http://www.w3.org/TR/2001/REC-SVG-20010904/DTD/svg10.dtd">
<svg version="1.0" id="Layer_1" xmlns="http://www.w3.org/2000/svg" xmlns:xlink="http://www.w3.org/1999/xlink" x="0px" y="0px"
	 width="392.32px" height="392.319px" viewBox="0 0 392.32 392.319" enable-background="new 0 0 392.32 392.319"
	 xml:space="preserve">
<g>
	<path d="M196.159,0C87.999,0-0.001,88-0.001,196.161c0,108.16,88,196.16,196.16,196.16c108.159,0,196.159-88,196.159-196.16
		S304.318,0,196.159,0L196.159,0z M196.159,372.72c-97.36,0-176.559-79.199-176.559-176.559c0-97.36,79.199-176.559,176.559-176.559
		s176.559,79.2,176.559,176.559S293.519,372.72,196.159,372.72L196.159,372.72z M196.159,372.72"/>
	<path d="M288.318,189.2l-55.12-55.117c-3.841-3.84-10-3.84-13.841,0c-3.839,3.84-3.839,10,0,13.84l38.403,38.398H110.959
		c-5.44,0-9.839,4.398-9.839,9.84c0,5.441,4.399,9.841,9.839,9.841h146.719l-38.398,38.397c-3.841,3.844-3.841,10,0,13.844
		c3.84,3.841,10,3.841,13.84,0l55.116-55.121c1.923-1.922,2.884-4.402,2.884-6.961C291.12,193.602,290.236,191.122,288.318,189.2
		L288.318,189.2z M288.318,189.2"/>
</g>
</svg>
