<?xml version="1.0" encoding="utf-8"?>
<!-- Generator: Adobe Illustrator 16.0.0, SVG Export Plug-In . SVG Version: 6.00 Build 0)  -->
<!DOCTYPE svg PUBLIC "-//W3C//DTD SVG 1.0//EN" "http://www.w3.org/TR/2001/REC-SVG-20010904/DTD/svg10.dtd">
<svg version="1.0" id="Layer_1" xmlns="http://www.w3.org/2000/svg" xmlns:xlink="http://www.w3.org/1999/xlink" x="0px" y="0px"
	 width="391.92px" height="289.92px" viewBox="0 0 391.92 289.92" enable-background="new 0 0 391.92 289.92" xml:space="preserve">
<g>
	<g>
		<defs>
			<rect id="SVGID_1_" width="391.92" height="289.92"/>
		</defs>
		<clipPath id="SVGID_2_">
			<use xlink:href="#SVGID_1_"  overflow="visible"/>
		</clipPath>
		<path clip-path="url(#SVGID_2_)" d="M343.52,153.119c-28.32-34.48-81.68-75.52-175.757-79.039V10.24
			c0-3.762-2.16-7.281-5.602-8.879c-3.441-1.601-7.519-1.121-10.398,1.278L3.602,124.799C1.359,126.639,0,129.439,0,132.318
			c0,2.961,1.281,5.684,3.52,7.524l148.16,122.637c2.961,2.402,6.961,2.961,10.398,1.281c3.442-1.602,5.602-5.039,5.602-8.879
			v-63.602c61.441,0.242,155.359,4.801,205.199,92.723c1.762,3.117,5.043,4.957,8.563,4.957c0.797,0,1.68-0.078,2.48-0.32
			c4.316-1.117,7.277-5.039,7.277-9.438C391.281,246.318,378.719,196.002,343.52,153.119L343.52,153.119z M157.922,171.682
			c-2.641,0-5.121,1.039-6.961,2.879s-2.883,4.32-2.883,6.961v52.559L25.281,132.4L148.16,31.041v52.558
			c0,5.36,4.32,9.762,9.68,9.84c140.801,1.36,193.281,87.2,208.559,147.52C305.762,171.76,214.961,171.682,157.922,171.682
			L157.922,171.682z M157.922,171.682"/>
	</g>
</g>
</svg>
