<?xml version="1.0" encoding="utf-8"?>
<!-- Generator: Adobe Illustrator 16.0.0, SVG Export Plug-In . SVG Version: 6.00 Build 0)  -->
<!DOCTYPE svg PUBLIC "-//W3C//DTD SVG 1.0//EN" "http://www.w3.org/TR/2001/REC-SVG-20010904/DTD/svg10.dtd">
<svg version="1.0" id="Layer_1" xmlns="http://www.w3.org/2000/svg" xmlns:xlink="http://www.w3.org/1999/xlink" x="0px" y="0px"
	 width="392.32px" height="392.319px" viewBox="0 0 392.32 392.319" enable-background="new 0 0 392.32 392.319"
	 xml:space="preserve">
<g>
	<path d="M196.16,0C88,0,0,88,0,196.16c0,108.159,88,196.159,196.16,196.159s196.16-88,196.16-196.159C392.32,88,304.32,0,196.16,0
		L196.16,0z M196.16,372.719c-97.359,0-176.558-79.199-176.558-176.559S98.801,19.602,196.16,19.602S372.719,98.801,372.719,196.16
		S293.52,372.719,196.16,372.719L196.16,372.719z M196.16,372.719"/>
	<path d="M247.52,148.398l-75.2,74.801l-27.441-27.598c-3.84-3.84-10-3.84-13.84-0.082c-3.84,3.761-3.84,10-0.078,13.838
		l34.32,34.563c1.918,1.918,4.399,2.879,6.957,2.879c2.481,0,4.961-0.961,6.883-2.879l82.16-81.684c3.84-3.84,3.84-10,0.078-13.84
		C257.52,144.559,251.359,144.559,247.52,148.398L247.52,148.398z M247.52,148.398"/>
</g>
</svg>
