<?xml version="1.0" encoding="utf-8"?>
<!-- Generator: Adobe Illustrator 16.0.0, SVG Export Plug-In . SVG Version: 6.00 Build 0)  -->
<!DOCTYPE svg PUBLIC "-//W3C//DTD SVG 1.0//EN" "http://www.w3.org/TR/2001/REC-SVG-20010904/DTD/svg10.dtd">
<svg version="1.0" id="Layer_1" xmlns="http://www.w3.org/2000/svg" xmlns:xlink="http://www.w3.org/1999/xlink" x="0px" y="0px"
	 width="354.959px" height="391.92px" viewBox="0 0 354.959 391.92" enable-background="new 0 0 354.959 391.92"
	 xml:space="preserve">
<g>
	<g>
		<defs>
			<rect id="SVGID_1_" width="354.959" height="391.92"/>
		</defs>
		<clipPath id="SVGID_2_">
			<use xlink:href="#SVGID_1_"  overflow="visible"/>
		</clipPath>
		<path clip-path="url(#SVGID_2_)" d="M46.32,50.96c-3.84-3.84-10-3.84-13.84-0.082c-3.921,3.844-3.921,10-0.082,13.844
			l23.364,23.519c1.84,1.84,4.316,2.879,6.957,2.879c2.562,0,5.043-1.039,6.883-2.879l71.117-70.722c3.84-3.84,3.84-10,0.082-13.84
			c-3.84-3.84-10-3.84-13.84,0l-21.52,21.359C94,13.198,78.078,6.402,61.359,6.402C27.52,6.402,0,33.921,0,67.761
			c0,33.84,27.52,61.359,61.359,61.359c27.282,0,50.879-17.519,58.801-43.601c1.602-5.199-1.359-10.641-6.558-12.239
			c-5.204-1.519-10.641,1.36-12.243,6.559c-5.281,17.441-21.757,29.68-40,29.68c-23.039,0-41.757-18.719-41.757-41.758
			c0-23.039,18.718-41.762,41.757-41.762c11.442,0,22.321,4.801,30.161,12.961L62.801,67.519L46.32,50.96z M46.32,50.96"/>
	</g>
	<path d="M61.359,137.28C27.52,137.28,0,164.8,0,198.641c0,33.84,27.52,61.357,61.359,61.357c33.84,0,61.36-27.518,61.36-61.357
		C122.719,164.8,95.199,137.28,61.359,137.28L61.359,137.28z M61.359,240.402c-23.039,0-41.757-18.723-41.757-41.762
		c0-23.04,18.718-41.763,41.757-41.763s41.762,18.723,41.762,41.763C103.121,221.68,84.398,240.402,61.359,240.402L61.359,240.402z
		 M61.359,240.402"/>
	<path d="M122.719,329.602c0-33.84-27.521-61.361-61.36-61.361C27.52,268.24,0,295.762,0,329.602s27.52,61.357,61.359,61.357
		C95.199,390.959,122.719,363.441,122.719,329.602L122.719,329.602z M61.359,371.441c-23.039,0-41.757-18.719-41.757-41.762
		c0-23.039,18.718-41.758,41.757-41.758s41.762,18.719,41.762,41.758C103.121,352.723,84.398,371.441,61.359,371.441L61.359,371.441
		z M61.359,371.441"/>
	<path d="M344.641,188.8H154c-5.441,0-9.84,4.398-9.84,9.841c0,5.439,4.399,9.84,9.84,9.84h190.641c5.438,0,9.84-4.4,9.84-9.84
		C354.48,193.198,350.078,188.8,344.641,188.8L344.641,188.8z M344.641,188.8"/>
	<path d="M344.641,57.999H154c-5.441,0-9.84,4.403-9.84,9.84c0,5.441,4.399,9.84,9.84,9.84h190.641c5.438,0,9.84-4.399,9.84-9.84
		C354.48,62.402,350.078,57.999,344.641,57.999L344.641,57.999z M344.641,57.999"/>
	<path d="M344.641,319.84H154c-5.441,0-9.84,4.4-9.84,9.84s4.399,9.84,9.84,9.84h190.641c5.438,0,9.84-4.4,9.84-9.84
		C354.48,324.158,350.078,319.84,344.641,319.84L344.641,319.84z M344.641,319.84"/>
</g>
</svg>
