<?xml version="1.0" encoding="utf-8"?>
<!-- Generator: Adobe Illustrator 16.0.0, SVG Export Plug-In . SVG Version: 6.00 Build 0)  -->
<!DOCTYPE svg PUBLIC "-//W3C//DTD SVG 1.0//EN" "http://www.w3.org/TR/2001/REC-SVG-20010904/DTD/svg10.dtd">
<svg version="1.0" id="Layer_1" xmlns="http://www.w3.org/2000/svg" xmlns:xlink="http://www.w3.org/1999/xlink" x="0px" y="0px"
	 width="392.881px" height="298.801px" viewBox="0 0 392.881 298.801" enable-background="new 0 0 392.881 298.801"
	 xml:space="preserve">
<g>
	<g>
		<defs>
			<rect id="SVGID_1_" width="392.881" height="298.801"/>
		</defs>
		<clipPath id="SVGID_2_">
			<use xlink:href="#SVGID_1_"  overflow="visible"/>
		</clipPath>
		<path clip-path="url(#SVGID_2_)" d="M0,49.6v198.559c0,27.363,22.32,49.684,49.68,49.684h160.48
			c27.359,0,49.68-22.32,49.68-49.684v-32.16c0-5.438-4.398-9.84-9.84-9.84s-9.84,4.402-9.84,9.84v32.16
			c0,16.563-13.52,30.082-30.082,30.082H49.68c-16.559,0-30.078-13.52-30.078-30.082V49.6c0-16.559,13.519-30.078,30.078-30.078
			h160.48c16.559,0,30.078,13.519,30.078,30.078v32.16c0,5.441,4.402,9.84,9.84,9.84c5.441,0,9.844-4.399,9.844-9.84V49.6
			c0-27.36-22.32-49.68-49.684-49.68H49.68C22.32-0.08,0,22.158,0,49.6L0,49.6z M0,49.6"/>
		<path clip-path="url(#SVGID_2_)" d="M308.32,222.881c1.918,1.918,4.398,2.879,6.961,2.879c2.559,0,5.039-0.961,6.957-2.879
			l67.121-67.121c3.84-3.84,3.84-10,0-13.84l-67.121-67.121c-3.84-3.84-10-3.84-13.84,0s-3.84,10,0,13.84l50.402,50.402H174.879
			c-5.438,0-9.84,4.399-9.84,9.84c0,5.438,4.402,9.84,9.84,9.84h183.84l-50.398,50.398
			C304.48,212.881,304.48,219.119,308.32,222.881L308.32,222.881z M308.32,222.881"/>
	</g>
</g>
</svg>
