<?xml version="1.0" encoding="utf-8"?>
<!-- Generator: Adobe Illustrator 16.0.0, SVG Export Plug-In . SVG Version: 6.00 Build 0)  -->
<!DOCTYPE svg PUBLIC "-//W3C//DTD SVG 1.0//EN" "http://www.w3.org/TR/2001/REC-SVG-20010904/DTD/svg10.dtd">
<svg version="1.0" id="Layer_1" xmlns="http://www.w3.org/2000/svg" xmlns:xlink="http://www.w3.org/1999/xlink" x="0px" y="0px"
	 width="391.84px" height="391.84px" viewBox="0 0 391.84 391.84" enable-background="new 0 0 391.84 391.84" xml:space="preserve">
<g>
	<path d="M350.559,0H41.281C18.48,0,0,18.559,0,41.281v309.278c0,22.801,18.559,41.281,41.281,41.281h309.278
		c22.801,0,41.281-18.559,41.281-41.281V41.281C391.84,18.559,373.281,0,350.559,0L350.559,0z M372.238,350.559
		c0,11.922-9.758,21.68-21.68,21.68H41.281c-11.922,0-21.679-9.758-21.679-21.68V41.281c0-11.922,9.757-21.679,21.679-21.679
		h309.278c11.922,0,21.68,9.757,21.68,21.679V350.559z M372.238,350.559"/>
	<path d="M255.199,136.641c-3.84-3.84-10-3.84-13.84,0l-45.438,45.437l-45.442-45.437c-3.839-3.84-10-3.84-13.839,0
		c-3.84,3.839-3.84,10,0,13.839l45.437,45.442l-45.437,45.438c-3.84,3.84-3.84,10,0,13.84c1.918,1.922,4.398,2.879,6.961,2.879
		c2.558,0,5.039-0.957,6.957-2.879L196,209.762l45.441,45.438c1.918,1.922,4.398,2.879,6.957,2.879c2.563,0,5.043-0.957,6.961-2.879
		c3.84-3.84,3.84-10,0-13.84l-45.598-45.438l45.438-45.442C259.039,146.641,259.039,140.48,255.199,136.641L255.199,136.641z
		 M255.199,136.641"/>
</g>
</svg>
