<?xml version="1.0" encoding="utf-8"?>
<!-- Generator: Adobe Illustrator 16.0.0, SVG Export Plug-In . SVG Version: 6.00 Build 0)  -->
<!DOCTYPE svg PUBLIC "-//W3C//DTD SVG 1.0//EN" "http://www.w3.org/TR/2001/REC-SVG-20010904/DTD/svg10.dtd">
<svg version="1.0" id="Layer_1" xmlns="http://www.w3.org/2000/svg" xmlns:xlink="http://www.w3.org/1999/xlink" x="0px" y="0px"
	 width="316.801px" height="392.881px" viewBox="0 0 316.801 392.881" enable-background="new 0 0 316.801 392.881"
	 xml:space="preserve">
<g>
	<g>
		<defs>
			<rect id="SVGID_1_" width="316.801" height="392.881"/>
		</defs>
		<clipPath id="SVGID_2_">
			<use xlink:href="#SVGID_1_"  overflow="visible"/>
		</clipPath>
		<path clip-path="url(#SVGID_2_)" d="M157.922,78.802c-45.117,0-81.758,36.719-81.758,81.758c0,45.04,36.641,81.84,81.758,81.84
			c45.121,0,81.762-36.719,81.762-81.758C239.684,115.599,203.043,78.802,157.922,78.802L157.922,78.802z M157.922,222.803
			c-34.32,0-62.16-27.923-62.16-62.161c0-34.242,27.922-62.16,62.16-62.16c34.242,0,62.16,27.918,62.16,62.16
			C220.082,194.88,192.242,222.803,157.922,222.803L157.922,222.803z M157.922,222.803"/>
		<path clip-path="url(#SVGID_2_)" d="M157.922,0.88c-1.84,0-3.758,0-5.598,0.078C73.441,3.681,8.242,64.958,0.723,143.439
			c-1.442,15.203-0.719,30.48,2.082,45.043c0,0,0.238,1.839,1.117,5.277c2.402,10.802,6,21.28,10.562,31.044
			c16.239,38.475,51.84,97.758,129.118,161.918c4.082,3.357,9.203,5.197,14.48,5.197c5.281,0,10.402-1.84,14.48-5.197
			c77.199-64.078,112.801-123.443,128.961-161.604c4.641-10,8.238-20.557,10.641-31.276c0.48-1.922,0.801-3.52,1.039-5.039
			c1.918-9.844,2.879-19.922,2.879-30C315.922,71.759,245.043,0.88,157.922,0.88L157.922,0.88z M293.762,185.439
			c0,0.16-0.238,1.519-0.797,4c-2.16,9.442-5.281,18.639-9.441,27.76c-15.441,36.482-49.359,92.879-123.52,154.4
			c-0.723,0.561-1.442,0.721-2,0.721c-0.481,0-1.281-0.16-2-0.721c-74.16-61.6-108.16-118-123.68-154.719
			c-4.082-8.803-7.203-18-9.359-27.521c-0.481-2.082-0.723-3.359-0.801-3.761c0-0.16-0.082-0.321-0.082-0.481
			c-2.48-13.039-3.117-26.476-1.84-39.758c6.641-68.718,63.68-122.402,132.801-124.8c78.48-2.719,143.281,60.32,143.281,138.32
			C296.324,167.681,295.441,176.482,293.762,185.439L293.762,185.439z M293.762,185.439"/>
	</g>
</g>
</svg>
