<?xml version="1.0" encoding="utf-8"?>
<!-- Generator: Adobe Illustrator 16.0.0, SVG Export Plug-In . SVG Version: 6.00 Build 0)  -->
<!DOCTYPE svg PUBLIC "-//W3C//DTD SVG 1.0//EN" "http://www.w3.org/TR/2001/REC-SVG-20010904/DTD/svg10.dtd">
<svg version="1.0" id="Layer_1" xmlns="http://www.w3.org/2000/svg" xmlns:xlink="http://www.w3.org/1999/xlink" x="0px" y="0px"
	 width="390.078px" height="390.078px" viewBox="0 0 390.078 390.078" enable-background="new 0 0 390.078 390.078"
	 xml:space="preserve">
<g>
	<path d="M0,195.039c0,107.52,87.52,195.039,195.039,195.039c107.52,0,195.039-87.52,195.039-195.039
		C390.078,87.52,302.559,0,195.039,0C87.52,0,0,87.52,0,195.039L0,195.039z M81.52,328.641c28.8-19.441,53.519-31.922,60.8-35.52
		c4.399-2.16,7.2-6.563,7.2-11.52v-24.48c0-1.762-0.481-3.441-1.36-4.961c-4.961-8.398-8.398-18.48-10.16-29.922
		c-0.559-3.84-3.441-6.957-7.039-7.918c-0.961-1.199-3.68-5.359-7.121-17.441c-2.719-9.598-2.719-14.32-2.481-16.238
		c2.961,0,5.84-1.36,7.68-3.762c2.082-2.641,2.641-6.16,1.52-9.277c-3.84-10.883-4.321-22-1.36-33.364
		c2.563-10.879,8.403-21.117,17.442-30.398c4.879-5.199,10.48-9.84,16.48-13.602c0.078-0.078,0.238-0.16,0.32-0.238
		c5.039-3.52,10.239-6.16,15.438-7.922h0.082c4.398-1.519,8.961-2.316,13.84-2.558c13.121-1.122,24.879,1.281,35.199,7.441
		c11.359,6.238,15.922,14.398,15.922,14.398c1.598,3.039,4.637,5.039,8,5.282c0.078,0,4.398,0.8,8.316,5.918
		c4.641,6.16,11.203,22.16,3.203,60.8c-0.883,4.403,1.277,8.801,5.199,10.719c0.32,1.524,0.719,6.16-2.32,16.961
		c-2.719,9.602-4.961,14.16-6.32,16.242c-1.68-0.242-3.52,0-5.121,0.641c-3.039,1.277-5.277,4.078-5.84,7.277
		c-1.598,9.039-4.078,17.121-7.438,24c-0.641,1.359-0.961,2.801-0.961,4.242v28.32c0,4.957,2.719,9.359,7.199,11.52
		c7.359,3.598,32.082,16.16,60.801,35.52c-30.641,26.078-70.242,41.84-113.52,41.84C151.762,370.48,112.16,354.719,81.52,328.641
		L81.52,328.641z M195.039,19.602c96.723,0,175.441,78.718,175.441,175.437c0,46.242-18,88.402-47.359,119.762
		c-27.441-18.801-51.84-31.84-62.883-37.359V255.52c2.641-5.758,4.801-12.16,6.402-18.961c7.84-2.957,13.359-12.078,18.559-30.398
		c4.723-16.719,4.32-28.48-1.277-35.199c5.84-32.082,3.199-55.762-7.922-70.402c-5.762-7.68-12.48-11.039-17.121-12.481
		c-3.277-4.637-9.918-12.156-20.957-18.238c-13.684-8.078-29.363-11.442-46.242-10c-6.399,0.32-12.719,1.519-18.879,3.601h-0.082
		c-6.879,2.321-13.598,5.758-20.078,10.239c-7.36,4.718-14.161,10.32-20,16.48c-11.52,11.762-19.039,25.039-22.321,39.199
		c-3.039,11.68-3.359,23.36-0.879,34.879c-1.043,0.801-2.082,1.684-2.961,2.801c-5.761,6.961-6.242,18.082-1.441,35.121
		c3.199,11.281,7.359,22.879,14.563,28.238c2.16,10.801,5.597,20.641,10.32,29.281v17.762c-10.961,5.52-35.442,18.559-62.883,37.359
		c-29.359-31.359-47.437-73.52-47.437-119.762C19.602,98.32,98.32,19.602,195.039,19.602L195.039,19.602z M195.039,19.602"/>
</g>
</svg>
