<?xml version="1.0" encoding="utf-8"?>
<!-- Generator: Adobe Illustrator 16.0.0, SVG Export Plug-In . SVG Version: 6.00 Build 0)  -->
<!DOCTYPE svg PUBLIC "-//W3C//DTD SVG 1.0//EN" "http://www.w3.org/TR/2001/REC-SVG-20010904/DTD/svg10.dtd">
<svg version="1.0" id="Layer_1" xmlns="http://www.w3.org/2000/svg" xmlns:xlink="http://www.w3.org/1999/xlink" x="0px" y="0px"
	 width="302.398px" height="386.801px" viewBox="0 0 302.398 386.801" enable-background="new 0 0 302.398 386.801"
	 xml:space="preserve">
<g>
	<path d="M302.398,376.961v-54.242c0-67.117-44-124.16-104.559-143.84c29.121-16.399,48.879-47.598,48.879-83.359
		c0-52.641-42.879-95.52-95.52-95.52C98.559,0,55.68,42.879,55.68,95.52c0,35.761,19.761,66.96,48.879,83.359
		C43.922,198.559,0,255.602,0,322.719v54.242c0,5.438,4.398,9.84,9.84,9.84h282.879C298,386.719,302.398,382.398,302.398,376.961
		L302.398,376.961z M75.199,95.52c0-41.84,34.082-75.918,75.922-75.918c41.84,0,75.918,34.078,75.918,75.918
		c0,41.839-34.078,75.921-75.918,75.921C109.281,171.441,75.199,137.359,75.199,95.52L75.199,95.52z M282.801,367.121H19.441v-44.48
		c0-72.563,59.039-131.68,131.68-131.68c72.641,0,131.68,59.039,131.68,131.68V367.121z M282.801,367.121"/>
</g>
</svg>
