<?xml version="1.0" encoding="utf-8"?>
<!-- Generator: Adobe Illustrator 16.0.0, SVG Export Plug-In . SVG Version: 6.00 Build 0)  -->
<!DOCTYPE svg PUBLIC "-//W3C//DTD SVG 1.0//EN" "http://www.w3.org/TR/2001/REC-SVG-20010904/DTD/svg10.dtd">
<svg version="1.0" id="Layer_1" xmlns="http://www.w3.org/2000/svg" xmlns:xlink="http://www.w3.org/1999/xlink" x="0px" y="0px"
	 width="392.881px" height="391.918px" viewBox="0 0 392.881 391.918" enable-background="new 0 0 392.881 391.918"
	 xml:space="preserve">
<g>
	<g>
		<defs>
			<rect id="SVGID_1_" width="392.881" height="392.881"/>
		</defs>
		<clipPath id="SVGID_2_">
			<use xlink:href="#SVGID_1_"  overflow="visible"/>
		</clipPath>
		<path clip-path="url(#SVGID_2_)" d="M183.922,116.239l-38,38c-14,14-28.082,28-42,42.16c-3.281,3.359-5.762,7.839-6.723,12.242
			C92.16,231.758,87.281,254.879,82.398,278l-2.718,12.801c-1.282,6.238,0.398,12.48,4.64,16.719
			c3.282,3.281,7.84,5.121,12.641,5.121c1.359,0,2.719-0.16,4.078-0.402l14.082-2.957c22.399-4.723,44.879-9.523,67.277-14.16
			c5.204-1.121,9.602-3.441,13.364-7.203c62.878-62.957,125.757-125.839,188.636-188.636c4.641-4.641,7.203-10.16,7.84-16.961
			c0.082-1.121,0-2.242-0.238-3.281c-0.398-1.598-0.719-3.282-1.121-4.879c-0.879-4.082-1.84-8.719-3.758-13.2
			c-11.762-26.882-31.281-46.082-58-56.882c-5.359-2.161-11.043-2.879-16-3.52l-1.359-0.16C304.559-0.48,298,1.918,292.32,7.68
			C256.32,43.84,220.078,80.079,183.922,116.239L183.922,116.239z M309.121,19.68h0.398l1.359,0.16c4.16,0.481,8,0.961,11.043,2.239
			c21.758,8.8,37.758,24.48,47.438,46.562c1.121,2.559,1.84,5.84,2.563,9.277c0.238,1.282,0.559,2.563,0.797,3.84
			c-0.32,1.442-0.879,2.403-2,3.442C307.762,148,244.879,210.961,182,273.84c-1.039,1.039-2,1.52-3.441,1.84
			c-22.481,4.719-44.879,9.441-67.36,14.16l-11.84,2.48l2.243-10.48c4.878-23.039,9.757-46.16,14.718-69.199
			c0.16-0.723,0.801-1.84,1.52-2.641c13.922-14.082,27.84-28.082,41.84-42l38-38c36.242-36.242,72.48-72.48,108.641-108.8
			C307.84,19.918,308.559,19.68,309.121,19.68L309.121,19.68z M309.121,19.68"/>
	</g>
	<path d="M31.121,87.442h139.68c5.437,0,9.84-4.402,9.84-9.844c0-5.437-4.403-9.84-9.84-9.84H31.121
		C13.922,67.758,0,81.758,0,98.879v261.922C0,378,14,391.918,31.121,391.918h261.84c17.199,0,31.117-14,31.117-31.117v-134
		c0-5.441-4.398-9.84-9.84-9.84c-5.438,0-9.84,4.398-9.84,9.84v134c0,6.32-5.199,11.52-11.52,11.52H31.121
		c-6.32,0-11.519-5.199-11.519-11.52V98.961C19.602,92.641,24.801,87.442,31.121,87.442L31.121,87.442z M31.121,87.442"/>
</g>
</svg>
