<?xml version="1.0" encoding="utf-8"?>
<!-- Generator: Adobe Illustrator 16.0.0, SVG Export Plug-In . SVG Version: 6.00 Build 0)  -->
<!DOCTYPE svg PUBLIC "-//W3C//DTD SVG 1.0//EN" "http://www.w3.org/TR/2001/REC-SVG-20010904/DTD/svg10.dtd">
<svg version="1.0" id="Layer_1" xmlns="http://www.w3.org/2000/svg" xmlns:xlink="http://www.w3.org/1999/xlink" x="0px" y="0px"
	 width="392.32px" height="392.319px" viewBox="0 0 392.32 392.319" enable-background="new 0 0 392.32 392.319"
	 xml:space="preserve">
<g>
	<path d="M196.16,392.32c108.161,0,196.161-88,196.161-196.16C392.32,88,304.32,0,196.16,0C88,0,0,88,0,196.16
		C0,304.32,88,392.32,196.16,392.32L196.16,392.32z M196.16,19.602c97.36,0,176.559,79.199,176.559,176.559
		c0,97.359-79.199,176.559-176.559,176.559c-97.359,0-176.559-79.199-176.559-176.559C19.601,98.8,98.8,19.602,196.16,19.602
		L196.16,19.602z M196.16,19.602"/>
	<path d="M104,203.121l55.12,55.117c3.841,3.84,10,3.84,13.841,0c3.839-3.84,3.839-10,0-13.84L134.558,206h146.801
		c5.44,0,9.84-4.398,9.84-9.84s-4.399-9.841-9.84-9.841H134.64l38.398-38.398c3.841-3.844,3.841-10,0-13.844
		c-3.84-3.84-10-3.84-13.84,0l-55.116,55.121c-1.923,1.922-2.884,4.403-2.884,6.961S102.083,201.199,104,203.121L104,203.121z
		 M104,203.121"/>
</g>
</svg>
