<?xml version="1.0" encoding="utf-8"?>
<!-- Generator: Adobe Illustrator 16.0.0, SVG Export Plug-In . SVG Version: 6.00 Build 0)  -->
<!DOCTYPE svg PUBLIC "-//W3C//DTD SVG 1.0//EN" "http://www.w3.org/TR/2001/REC-SVG-20010904/DTD/svg10.dtd">
<svg version="1.0" id="Layer_1" xmlns="http://www.w3.org/2000/svg" xmlns:xlink="http://www.w3.org/1999/xlink" x="0px" y="0px"
	 width="392.32px" height="392.319px" viewBox="0 0 392.32 392.319" enable-background="new 0 0 392.32 392.319"
	 xml:space="preserve">
<g>
	<path d="M392.32,196.16C392.32,88,304.32,0,196.16,0S0,88,0,196.16c0,108.159,88,196.159,196.16,196.159
		S392.32,304.319,392.32,196.16L392.32,196.16z M19.602,196.16c0-97.359,79.199-176.559,176.558-176.559
		S372.719,98.801,372.719,196.16S293.52,372.719,196.16,372.719S19.602,293.52,19.602,196.16L19.602,196.16z M19.602,196.16"/>
	<path d="M203.121,288.319l55.117-55.12c3.84-3.841,3.84-10,0-13.841c-3.84-3.839-10-3.839-13.84,0L206,257.762V110.961
		c0-5.441-4.398-9.84-9.84-9.84c-5.441,0-9.84,4.399-9.84,9.84V257.68l-38.398-38.398c-3.844-3.841-10-3.841-13.844,0
		c-3.84,3.84-3.84,10,0,13.84l55.121,55.116c1.922,1.923,4.403,2.884,6.961,2.884C198.719,291.121,201.199,290.237,203.121,288.319
		L203.121,288.319z M203.121,288.319"/>
</g>
</svg>
