<?xml version="1.0" encoding="utf-8"?>
<!-- Generator: Adobe Illustrator 16.0.0, SVG Export Plug-In . SVG Version: 6.00 Build 0)  -->
<!DOCTYPE svg PUBLIC "-//W3C//DTD SVG 1.0//EN" "http://www.w3.org/TR/2001/REC-SVG-20010904/DTD/svg10.dtd">
<svg version="1.0" id="Layer_1" xmlns="http://www.w3.org/2000/svg" xmlns:xlink="http://www.w3.org/1999/xlink" x="0px" y="0px"
	 width="373.199px" height="391.121px" viewBox="0 0 373.199 391.121" enable-background="new 0 0 373.199 391.121"
	 xml:space="preserve">
<g>
	<path d="M373.199,363.84v-20.801c0-21.199-9.918-41.598-26.48-54.48c-38.559-29.918-77.84-50.797-91.598-57.758v-23.762
		c2.801-6.238,5.117-13.039,6.879-20.398c10.238-3.68,15.84-18.719,19.602-32c5.039-17.68,4.477-30.082-1.441-36.961
		c6.238-34,3.441-59.039-8.238-74.481c-6.16-8.078-13.363-11.519-18.16-13.039c-3.441-4.801-10.402-12.879-22.16-19.359
		C219.441,3.602,205.762,0,190.719,0c-2.719,0-5.438,0.16-7.84,0.32c-6.719,0.321-13.359,1.602-19.918,3.758
		c-0.082,0-0.16,0.082-0.242,0.082c-7.199,2.481-14.239,6.078-21.039,10.719c-7.758,4.961-14.879,10.883-21.039,17.441
		c-12.082,12.399-20.082,26.399-23.52,41.36c-3.281,12.398-3.519,24.879-0.801,37.121c-1.441,1.039-2.718,2.238-3.84,3.679
		c-5.519,7.282-5.761,18.719-0.878,36.079c3.359,12,7.839,24.242,15.437,29.761c2.242,11.52,6,22,11.039,31.281v19.277
		c-13.758,6.961-53.039,27.762-91.598,57.762C9.922,301.52,0,321.84,0,343.121v20.801c0,15.039,12.238,27.199,27.199,27.199H346
		C360.961,391.121,373.199,378.879,373.199,363.84L373.199,363.84z M19.52,363.84v-20.801c0-15.199,7.039-29.758,18.878-38.961
		c41.602-32.238,83.922-53.52,92-57.438c4.481-2.16,7.282-6.641,7.282-11.68v-26c0-1.762-0.481-3.441-1.36-4.961
		c-5.281-8.961-8.961-19.68-10.8-31.922c-0.641-3.918-3.52-7.039-7.282-8c-1.039-1.199-4-5.519-7.758-18.879
		c-3.121-11.039-2.878-16.16-2.558-18c3.117,0.16,6.238-1.277,8.238-3.758c2.078-2.64,2.641-6.16,1.52-9.281
		c-4.16-11.601-4.641-23.519-1.442-35.68c2.723-11.679,8.961-22.558,18.641-32.48c5.199-5.602,11.199-10.48,17.601-14.559
		c0.079-0.082,0.239-0.16,0.321-0.242c5.359-3.758,10.961-6.558,16.48-8.48c0.078,0,0.16-0.078,0.16-0.078
		c4.719-1.602,9.598-2.481,14.719-2.719c14-1.203,26.559,1.437,37.68,7.918c12.16,6.719,17.121,15.519,17.121,15.519
		c1.52,3.121,4.238,4.961,7.758,5.2c0.242,0,5.441,0.8,9.922,7.121c4.719,6.718,11.438,24,3.039,64.32
		c-0.961,4.48,1.359,8.961,5.441,10.879c0.398,1.441,1.039,6.32-2.402,18.48c-3.039,10.719-5.52,15.602-6.957,17.762
		c-1.84-0.32-3.762-0.16-5.523,0.641c-3.039,1.277-5.277,4.078-5.84,7.277c-1.68,9.602-4.398,18.242-7.918,25.602
		c-0.641,1.359-0.961,2.801-0.961,4.238v30.082c0,5.039,2.801,9.438,7.281,11.68c8.078,3.918,50.398,25.281,91.918,57.438
		c11.84,9.203,18.883,23.762,18.883,38.961v20.801c0,4.16-3.441,7.602-7.602,7.602H27.199C22.961,371.52,19.52,368.078,19.52,363.84
		L19.52,363.84z M19.52,363.84"/>
</g>
</svg>
