<?xml version="1.0" encoding="utf-8"?>
<!-- Generator: Adobe Illustrator 16.0.0, SVG Export Plug-In . SVG Version: 6.00 Build 0)  -->
<!DOCTYPE svg PUBLIC "-//W3C//DTD SVG 1.0//EN" "http://www.w3.org/TR/2001/REC-SVG-20010904/DTD/svg10.dtd">
<svg version="1.0" id="Layer_1" xmlns="http://www.w3.org/2000/svg" xmlns:xlink="http://www.w3.org/1999/xlink" x="0px" y="0px"
	 width="392.881px" height="338.881px" viewBox="0 0 392.881 338.881" enable-background="new 0 0 392.881 338.881"
	 xml:space="preserve">
<g>
	<g>
		<defs>
			<rect id="SVGID_1_" width="392.881" height="338.881"/>
		</defs>
		<clipPath id="SVGID_2_">
			<use xlink:href="#SVGID_1_"  overflow="visible"/>
		</clipPath>
		<path clip-path="url(#SVGID_2_)" d="M0.035,169.039c0.481,8.082,5.84,14.883,13.598,17.199l143.683,43.441l5.278,99.039
			c0.242,3.922,2.879,7.363,6.64,8.641c1.039,0.402,2.161,0.563,3.2,0.563c2.8,0,5.441-1.121,7.359-3.281l50.801-56.242l72,49.84
			c3.199,2.242,6.961,3.441,10.879,3.441c9.043,0,16.883-6.398,18.801-15.359l59.762-304.559c0.719-3.524-0.641-7.204-3.359-9.442
			c-2.801-2.32-6.563-2.879-9.922-1.519L11.555,150.238C4.113,153.601-0.445,160.961,0.035,169.039L0.035,169.039z M180.836,304.16
			l-3.281-62.48l36.8,25.441L180.836,304.16z M313.156,311.762l-131.043-90.723L365.875,43.281L313.156,311.762z M345.715,35.441
			l-181.68,175.758L20.516,167.84L345.715,35.441z M345.715,35.441"/>
	</g>
</g>
</svg>
