<?xml version="1.0" encoding="utf-8"?>
<!-- Generator: Adobe Illustrator 16.0.0, SVG Export Plug-In . SVG Version: 6.00 Build 0)  -->
<!DOCTYPE svg PUBLIC "-//W3C//DTD SVG 1.0//EN" "http://www.w3.org/TR/2001/REC-SVG-20010904/DTD/svg10.dtd">
<svg version="1.0" id="Layer_1" xmlns="http://www.w3.org/2000/svg" xmlns:xlink="http://www.w3.org/1999/xlink" x="0px" y="0px"
	 width="392.32px" height="392.319px" viewBox="0 0 392.32 392.319" enable-background="new 0 0 392.32 392.319"
	 xml:space="preserve">
<g>
	<path d="M196.16,392.319c108.16,0,196.16-88,196.16-196.159C392.32,88,304.32,0,196.16,0S0,88,0,196.16
		C0,304.319,88,392.319,196.16,392.319L196.16,392.319z M196.16,19.602c97.359,0,176.559,79.199,176.559,176.559
		S293.52,372.719,196.16,372.719S19.602,293.52,19.602,196.16S98.801,19.602,196.16,19.602L196.16,19.602z M196.16,19.602"/>
	<path d="M144.238,248.078c1.922,1.922,4.403,2.883,6.961,2.883c2.563,0,5.039-0.961,6.961-2.883L196.238,210l38.083,38.078
		c1.918,1.922,4.398,2.883,6.961,2.883c2.559,0,5.039-0.961,6.957-2.883c3.84-3.84,3.84-10,0-13.841L210,196.16l38.078-38.083
		c3.844-3.84,3.844-10,0-13.84c-3.84-3.84-10-3.84-13.84,0L196.16,182.32l-38.082-38.082c-3.84-3.84-10-3.84-13.84,0
		c-3.84,3.84-3.84,10,0,13.84l38.082,38.083l-38.082,38.077C140.398,238.078,140.398,244.238,144.238,248.078L144.238,248.078z
		 M144.238,248.078"/>
</g>
</svg>
