<?xml version="1.0" encoding="utf-8"?>
<!-- Generator: Adobe Illustrator 16.0.0, SVG Export Plug-In . SVG Version: 6.00 Build 0)  -->
<!DOCTYPE svg PUBLIC "-//W3C//DTD SVG 1.0//EN" "http://www.w3.org/TR/2001/REC-SVG-20010904/DTD/svg10.dtd">
<svg version="1.0" id="Layer_1" xmlns="http://www.w3.org/2000/svg" xmlns:xlink="http://www.w3.org/1999/xlink" x="0px" y="0px"
	 width="317.922px" height="391.039px" viewBox="0 0 317.922 391.039" enable-background="new 0 0 317.922 391.039"
	 xml:space="preserve">
<g>
	<path d="M28.641,391.039h260.64c15.758,0,28.641-12.879,28.641-28.641V206.641c0-15.762-12.883-28.641-28.641-28.641h-20.16v-67.84
		C269.121,49.441,219.68,0,158.961,0C98.238,0,48.801,49.441,48.801,110.16V178h-20.16C12.879,178,0,190.879,0,206.641v155.758
		C0,378.16,12.879,391.039,28.641,391.039L28.641,391.039z M68.398,110.16c0-49.922,40.641-90.558,90.563-90.558
		c49.918,0,90.559,40.636,90.559,90.558V178H68.398V110.16z M19.602,206.641c0-4.961,4.078-9.039,9.039-9.039h260.64
		c4.957,0,9.039,4.078,9.039,9.039v155.758c0,4.961-4.082,9.043-9.039,9.043H28.641c-4.961,0-9.039-4.082-9.039-9.043V206.641z
		 M19.602,206.641"/>
	<path d="M158.961,324.398c22,0,39.918-17.918,39.918-39.918s-17.918-39.922-39.918-39.922s-39.922,17.922-39.922,39.922
		C119.039,306.559,136.961,324.398,158.961,324.398L158.961,324.398z M158.961,264.238c11.199,0,20.32,9.121,20.32,20.32
		c0,11.203-9.121,20.32-20.32,20.32c-11.199,0-20.32-9.117-20.32-20.32C138.641,273.359,147.762,264.238,158.961,264.238
		L158.961,264.238z M158.961,264.238"/>
</g>
</svg>
