<?xml version="1.0" encoding="utf-8"?>
<!-- Generator: Adobe Illustrator 16.0.0, SVG Export Plug-In . SVG Version: 6.00 Build 0)  -->
<!DOCTYPE svg PUBLIC "-//W3C//DTD SVG 1.0//EN" "http://www.w3.org/TR/2001/REC-SVG-20010904/DTD/svg10.dtd">
<svg version="1.0" id="Layer_1" xmlns="http://www.w3.org/2000/svg" xmlns:xlink="http://www.w3.org/1999/xlink" x="0px" y="0px"
	 width="391.52px" height="391.52px" viewBox="0 0 391.52 391.52" enable-background="new 0 0 391.52 391.52" xml:space="preserve">
<g>
	<path d="M0,350.238c0,22.801,18.559,41.281,41.281,41.281h308.958c22.801,0,41.281-18.559,41.281-41.281V41.281
		C391.52,18.48,372.961,0,350.238,0H41.281C18.48,0,0,18.559,0,41.281V350.238z M350.238,371.922H41.281
		c-11.922,0-21.679-9.762-21.679-21.684v-51.598l74.238-74.242l63.441,63.441c3.84,3.84,10,3.84,13.84,0L285.68,173.281
		l86.242,86.238v90.719C371.922,362.16,362.16,371.922,350.238,371.922L350.238,371.922z M41.281,19.602h308.958
		c11.922,0,21.684,9.757,21.684,21.679v190.481l-79.363-79.282c-3.84-3.839-10-3.839-13.84,0L164.16,267.039l-63.441-63.438
		c-3.84-3.84-10-3.84-13.84,0l-67.277,67.277V41.281C19.602,29.359,29.359,19.602,41.281,19.602L41.281,19.602z M41.281,19.602"/>
	<path d="M121.359,156.879c27.52,0,49.84-22.399,49.84-49.84c0-27.437-22.398-49.84-49.84-49.84
		c-27.437,0-49.839,22.403-49.839,49.84C71.52,134.48,93.84,156.879,121.359,156.879L121.359,156.879z M121.359,76.801
		c16.719,0,30.243,13.597,30.243,30.238S138,137.281,121.359,137.281c-16.64,0-30.238-13.601-30.238-30.242
		S104.641,76.801,121.359,76.801L121.359,76.801z M121.359,76.801"/>
</g>
</svg>
