<?xml version="1.0" encoding="utf-8"?>
<!-- Generator: Adobe Illustrator 16.0.0, SVG Export Plug-In . SVG Version: 6.00 Build 0)  -->
<!DOCTYPE svg PUBLIC "-//W3C//DTD SVG 1.0//EN" "http://www.w3.org/TR/2001/REC-SVG-20010904/DTD/svg10.dtd">
<svg version="1.0" id="Layer_1" xmlns="http://www.w3.org/2000/svg" xmlns:xlink="http://www.w3.org/1999/xlink" x="0px" y="0px"
	 width="392.881px" height="393.84px" viewBox="0 0 392.881 393.84" enable-background="new 0 0 392.881 393.84"
	 xml:space="preserve">
<g>
	<g>
		<defs>
			<rect id="SVGID_1_" width="392.881" height="393.84"/>
		</defs>
		<clipPath id="SVGID_2_">
			<use xlink:href="#SVGID_1_"  overflow="visible"/>
		</clipPath>
		<path clip-path="url(#SVGID_2_)" d="M334.801,335.521c76.48-76.482,76.48-200.961,0-277.443
			c-76.48-76.479-200.961-76.479-277.442,0c-76.48,76.481-76.48,200.96,0,277.443C133.84,412,258.32,412,334.801,335.521
			L334.801,335.521z M71.199,71.919c68.879-68.879,180.879-68.879,249.762,0c68.879,68.879,68.879,180.878,0,249.763
			c-68.883,68.879-180.883,68.879-249.762,0C2.32,252.797,2.398,140.798,71.199,71.919L71.199,71.919z M71.199,71.919"/>
	</g>
	<path d="M196.078,270.24c2.723,0,5.121-1.123,6.961-2.879c1.762-1.762,2.883-4.244,2.883-6.961v-53.84h53.84
		c2.719,0,5.117-1.121,6.957-2.879c1.762-1.764,2.883-4.242,2.883-6.962c0-5.441-4.402-9.84-9.762-9.762H206v-53.84
		c0-5.437-4.398-9.839-9.762-9.757c-5.437,0-9.84,4.398-9.758,9.757v53.84h-53.839c-5.442,0-9.84,4.403-9.762,9.762
		c0,5.44,4.402,9.841,9.762,9.763h53.839v53.84C186.238,265.842,190.641,270.24,196.078,270.24L196.078,270.24z M196.078,270.24"/>
</g>
</svg>
