<?xml version="1.0" encoding="utf-8"?>
<!-- Generator: Adobe Illustrator 16.0.0, SVG Export Plug-In . SVG Version: 6.00 Build 0)  -->
<!DOCTYPE svg PUBLIC "-//W3C//DTD SVG 1.0//EN" "http://www.w3.org/TR/2001/REC-SVG-20010904/DTD/svg10.dtd">
<svg version="1.0" id="Layer_1" xmlns="http://www.w3.org/2000/svg" xmlns:xlink="http://www.w3.org/1999/xlink" x="0px" y="0px"
	 width="391.84px" height="391.84px" viewBox="0 0 391.84 391.84" enable-background="new 0 0 391.84 391.84" xml:space="preserve">
<g>
	<path d="M350.559,0H41.281C18.48,0,0,18.559,0,41.281v309.278c0,22.801,18.559,41.281,41.281,41.281h309.278
		c22.801,0,41.281-18.559,41.281-41.281V41.281C391.84,18.559,373.281,0,350.559,0L350.559,0z M372.238,350.559
		c0,11.922-9.758,21.68-21.68,21.68H41.281c-11.922,0-21.679-9.758-21.679-21.68V41.281c0-11.922,9.757-21.679,21.679-21.679
		h309.278c11.922,0,21.68,9.757,21.68,21.679V350.559z M372.238,350.559"/>
	<path d="M269.922,186.16H205.68v-64.238c0-5.442-4.398-9.844-9.84-9.844c-5.442,0-9.84,4.402-9.84,9.844v64.238h-64.238
		c-5.442,0-9.84,4.399-9.84,9.762c0,5.438,4.398,9.84,9.84,9.84H186V270c0,5.441,4.398,9.84,9.84,9.84c5.441,0,9.84-4.398,9.84-9.84
		v-64.238h64.242c5.438,0,9.84-4.402,9.84-9.84C279.762,190.48,275.359,186.16,269.922,186.16L269.922,186.16z M269.922,186.16"/>
</g>
</svg>
